<?xml version="1.0" encoding="UTF-8"?>
<svg id="a" data-name="Layer 1" xmlns="http://www.w3.org/2000/svg" width="842.98" height="182.01" viewBox="0 0 842.98 182.01">
  <defs>
    <style>
      .b {
        fill: #231f20;
      }
    </style>
  </defs>
  <g>
    <g>
      <path class="b" d="M64.37.71c-.3,0-.78.11-1.58.28-.31.07-.66.15-1.05.23h-.07c-1.4.21-3.51.5-6.51.5H17.15c-3.05,0-6.72-.19-9.58-.51-1.43-.12-2.34-.54-3-.85-.45-.21-.8-.37-1.15-.37-.86,0-1.15,1-1.4,2.12-.15.62-2.02,10.03-2.02,11.71,0,.97.13,1.87,1.11,1.87.86,0,1.14-.75,1.3-1.41.13-.56.52-1.76,1.6-3.47,1.42-2.2,3.85-2.63,9.11-2.82,3.17-.07,6.87-.18,10.13-.28,1.44-.04,2.78-.08,3.92-.12v41.28c0,9.29,0,17.31-.48,21.56-.25,2.55-.74,4.96-2.59,5.35-1.15.27-2.26.4-3.4.4-.44,0-1.79,0-1.79,1.06,0,.84.73,1.26,2.17,1.26,2.19,0,5.06-.1,7.59-.18,1.91-.06,3.56-.12,4.51-.12,1.06,0,2.68.05,4.55.1,2.98.09,6.68.2,10.52.2,1.32,0,2.07-.46,2.07-1.26,0-.48-.31-1.06-1.79-1.06s-3.53-.2-4.86-.4c-2.54-.36-3.22-2.2-3.53-5.25-.48-4.34-.48-12.37-.48-21.65V7.6c5.33.1,9.31.2,11.84.3,9.31.22,10.94,3.5,11.08,5.42,0,.16.02.37.05.59.02.19.05.38.05.54.08,1.32.23,2.26,1.31,2.26.94,0,1.05-1.2,1.11-1.87,0-1.38.08-3.95.16-6.43.07-2.22.13-4.31.13-5.32,0-1.28,0-2.38-1.02-2.38Z"/>
      <path class="b" d="M153.55,76.19c-1.43,0-3.53-.2-4.86-.4-2.54-.36-3.22-2.2-3.53-5.25-.48-4.34-.48-12.37-.48-21.65v-17.83c0-15.45,0-18.23.19-21.47.2-3.69,1.05-5.09,3.35-5.54,1.19-.21,2.01-.3,2.74-.3.64,0,1.98,0,1.98-1.16,0-1.02-1.09-1.16-2.27-1.16-2.1,0-4.92.1-7.4.18-1.98.07-3.68.12-4.69.12-1.07,0-2.74-.05-4.68-.11-2.72-.08-6.1-.19-9.14-.19h0c-.76,0-1.25.06-1.6.21-.44.18-.66.5-.66.95,0,1.16,1.32,1.16,1.88,1.16,1.23,0,2.91.09,3.69.3,3.12.7,3.75,2.34,3.93,5.55.19,3.23.19,6.02.19,21.46v2.13c0,.29-.12.46-.33.46h-36.67c-.21,0-.33-.16-.33-.46v-2.13c0-15.45,0-18.23.19-21.47.21-3.81,1.08-5.29,3.33-5.64.75-.1,1.98-.2,2.75-.2,1.72,0,1.98-.73,1.98-1.16,0-1.02-1.09-1.16-2.27-1.16-2.1,0-4.92.1-7.4.18-1.98.07-3.68.12-4.69.12-1.07,0-2.74-.05-4.68-.11-2.72-.08-6.1-.19-9.14-.19h0c-.76,0-1.25.06-1.6.21-.44.18-.66.5-.66.95,0,1.16,1.32,1.16,1.88,1.16,1.23,0,2.91.09,3.69.3,3.12.7,3.75,2.34,3.93,5.55.19,3.23.19,6.02.19,21.46v17.83c0,9.29,0,17.31-.48,21.55-.35,2.71-.79,4.98-2.59,5.36-1.15.27-2.26.4-3.4.4-.44,0-1.79,0-1.79,1.06,0,.84.73,1.26,2.17,1.26,2.19,0,5.06-.1,7.59-.18,1.91-.06,3.56-.12,4.51-.12,1.06,0,2.69.05,4.57.1,2.95.09,6.63.2,10.4.2,1.89,0,2.17-.79,2.17-1.26s-.31-1.06-1.79-1.06-3.53-.2-4.86-.4c-2.54-.36-3.22-2.2-3.53-5.25-.48-4.34-.48-12.37-.48-21.65v-8.92c0-.3.1-.36.33-.36h36.67c.15,0,.33.09.33.36v8.92c0,9.29,0,17.31-.48,21.55-.35,2.71-.79,4.98-2.59,5.36-1.15.27-2.26.4-3.4.4-.44,0-1.79,0-1.79,1.06,0,1.26,1.71,1.26,2.27,1.26,2.12,0,4.96-.1,7.46-.18,1.92-.07,3.58-.12,4.54-.12,1.06,0,2.69.05,4.57.1,2.95.09,6.63.2,10.4.2,1.89,0,2.17-.79,2.17-1.26s-.31-1.06-1.79-1.06Z"/>
      <path class="b" d="M213.84,62.61c-.93,0-1.13.72-1.3,1.73-.68,4.17-1.81,6.16-4.18,7.31-2.44,1.19-6.49,1.19-8.91,1.19-9.96,0-11.09-1.67-11.27-8.27-.07-2.08-.04-7.31-.02-11.52,0-1.69.02-3.18.02-4.18v-8c0-.76.17-.76.33-.76,2.15,0,11.75.1,13.6.3,3.03.35,4.63,1.51,5.16,3.76.22,1.02.27,1.61.33,2.3.02.19.03.39.05.59,0,.75.3,1.87,1.11,1.87,1.11,0,1.11-1.36,1.11-2.17,0-.38.09-1.79.18-3.29.08-1.25.16-2.57.2-3.48.25-3.42.51-5.31.65-6.32.07-.54.12-.87.12-1.09,0-.96-.65-1.06-.92-1.06-.57,0-.98.5-1.6,1.25l-.13.16c-.81.95-2.18,1.23-4.44,1.43-1.42.13-6.86.2-15.34.2-.27,0-.42-.04-.42-.86V8.05c0-.76.23-.76.42-.76,1.8,0,11.97.2,13.6.4,4.81.61,5.62,1.83,6.23,3.49.46,1.18.56,2.78.56,3.15,0,.72,0,2.07,1.11,2.07.96,0,1.14-.99,1.21-1.33.13-.8.25-2.92.35-4.63.05-.93.1-1.72.13-2.08.19-3.13.47-4.68.64-5.6.08-.45.13-.75.13-1,0-.29,0-1.16-.83-1.16-.34,0-.69.12-1.03.24-.19.07-.38.13-.57.17-.85.23-2.74.45-4.08.6-1.64.09-17.32.1-23.98.1-2.57,0-4.99-.08-7.33-.16-2.24-.07-4.35-.15-6.49-.15-1.14,0-2.36.09-2.36,1.16,0,1.16,1.32,1.16,1.88,1.16,1.23,0,2.91.09,3.69.3,3.12.7,3.75,2.34,3.93,5.55.19,3.23.19,6.02.19,21.46v17.83c0,9.29,0,17.31-.48,21.55-.35,2.71-.79,4.98-2.59,5.36-1.15.27-2.26.4-3.4.4-.44,0-1.79,0-1.79,1.06,0,.84.73,1.26,2.17,1.26,2.23,0,4.36-.08,6.41-.16,1.97-.07,3.82-.15,5.68-.15,4.94,0,9.58.16,14.06.32,4.31.15,8.37.29,12.52.29,3.61,0,4.71,0,5.43-2.83.49-2.08,1.25-8.95,1.25-11.3,0-1.02,0-2.07-1.02-2.07Z"/>
    </g>
    <path class="b" d="M329.23,40.02c-1.61,0-3.74.08-5.79.16-2.05.08-3.98.15-5.44.15-1.24,0-3.05-.06-5.15-.12-2.78-.09-5.93-.18-8.77-.18-1.1,0-2.27.1-2.27,1.26,0,.7.57,1.06,1.69,1.06,1.23,0,2.91.09,3.69.3,2.88.64,3.83,1.99,3.93,5.54.1,3.04.1,6.97.1,11.95v9.52c0,1.89-.5,2.94-1.68,3.52-2.25,1.09-5.6,1.09-8.05,1.09-19.52,0-33.16-15.56-33.16-37.85,0-11.36,2.86-19.42,8.75-24.63,6.25-5.47,12.75-6.22,18.84-6.22,11.27,0,18.64,4.92,21.22,7.82,2.54,2.88,2.95,6.26,3.2,8.27.06.54.18,1.54,1.21,1.54,1.09,0,1.31-.91,1.31-2.38,0-9.75.39-13.61.58-15.46.05-.54.09-.89.09-1.16,0-.82-.26-1.35-1.58-1.47-2.37-.11-6.07-.81-7.54-1.11-2.12-.45-10.58-1.63-17.04-1.63-7.53,0-16.37.51-25.96,6.62-10.53,6.72-16.82,19.18-16.82,33.34,0,13.03,4.65,23.59,13.45,30.54,7.81,6.17,18.58,9.43,31.15,9.43,4.49,0,15.75-.45,23.27-4.6,1.25-.77,1.37-1.1,1.37-3.86v-11.15c0-5.09,0-9.11.1-12.15.1-3.52,1.06-5.07,3.44-5.54,1.2-.21,1.82-.3,2.55-.3,1.35,0,1.5-.74,1.5-1.06,0-1.26-1.41-1.26-2.17-1.26Z"/>
    <path class="b" d="M379.54,0c-27.41,0-39.9,20.72-39.9,39.97s12.18,39.97,38.94,39.97c11.79,0,21.88-4.2,29.2-12.15,6.96-7.56,10.79-18.09,10.79-29.64,0-23.53-14.96-38.14-39.03-38.14ZM404.63,41.89c0,29.31-15.4,32.48-22.02,32.48-8.73,0-16.15-3.77-21.45-10.89-5.01-6.75-7.77-16.21-7.77-26.65,0-27.38,14.64-31.46,23.36-31.46,16.41,0,27.88,15.02,27.88,36.53Z"/>
    <path class="b" d="M478.32,62.21c-1.12,0-1.24,1.13-1.3,1.75-.19,1.9-1.33,4.67-2.44,5.94-2.25,2.57-5.67,2.75-11.04,2.75-7.67,0-9.94-.76-11.45-2.16-1.93-1.75-1.93-8.8-1.93-21.6v-17.83c0-15.45,0-18.23.19-21.47.2-3.69,1.05-5.09,3.35-5.54,1.18-.21,2.71-.3,3.7-.3.64,0,1.98,0,1.98-1.16,0-1.02-1.09-1.16-2.27-1.16-2.1,0-5.22.1-7.97.18-2.19.07-4.08.12-5.09.12-1.11,0-2.85-.06-4.87-.12-2.68-.09-5.71-.18-8.28-.18h0c-.81,0-1.33.06-1.68.21-.45.18-.67.5-.67.95,0,1.16,1.32,1.16,1.88,1.16,1.28,0,2.38.1,3.11.3,3.12.7,3.75,2.34,3.93,5.55.19,3.23.19,6.02.19,21.46v17.83c0,9.29,0,17.31-.48,21.55-.35,2.71-.79,4.98-2.59,5.36-1.15.27-2.26.4-3.4.4-.44,0-1.79,0-1.79,1.06,0,.84.73,1.26,2.17,1.26,2.23,0,4.36-.08,6.41-.16,1.97-.07,3.82-.15,5.68-.15,5.33,0,10.25.16,15.02.32,4.45.15,8.66.29,12.92.29,5.06,0,5.67-.52,6.29-2.92.78-2.98,1.45-10.54,1.45-11.71,0-.97,0-1.97-1.02-1.97Z"/>
    <path class="b" d="M531.12.61c-.36,0-.68.17-1.03.35-.19.1-.39.2-.58.27-.76.24-1.68.28-2.95.35l-.92.05c-1.92.09-16.69.1-25.33.1-2.57,0-4.99-.08-7.33-.16-2.24-.07-4.35-.15-6.49-.15-1.19,0-2.46.1-2.46,1.26,0,.7.63,1.06,1.88,1.06s2.91.09,3.69.3c3.12.7,3.75,2.34,3.93,5.55.19,3.23.19,6.02.19,21.46v17.83c0,9.67,0,17.31-.48,21.55-.35,2.71-.79,4.98-2.59,5.36-1.15.27-2.26.4-3.4.4s-1.69.36-1.69,1.06c0,1.17,1.17,1.26,2.27,1.26,2,0,4.75-.09,7.18-.17,2-.07,3.89-.13,5.01-.13.97,0,2.46.05,4.34.1,2.93.09,6.57.2,10.25.2,1.01,0,2.36-.13,2.36-1.26,0-.95-1.07-1.06-1.88-1.06-1.35,0-3.47-.21-4.77-.4-2.56-.36-3.22-2.16-3.53-5.35-.48-4.24-.48-11.88-.48-21.55v-8.21c0-.66.16-.66.42-.66,3.55,0,12.02.03,14.17.3,3.42.47,4.46,2.78,4.69,3.48.39,1.23.56,2.43.56,3.07,0,1.04.38,1.67,1.02,1.67,1.21,0,1.21-1.26,1.21-2.17,0-.7.19-5.39.38-7.37.17-1.8.39-3.4.56-4.56.13-.88.21-1.47.21-1.74,0-1.01-.52-1.16-.83-1.16-.61,0-.88.37-1.23.83-.07.09-.14.18-.22.29-1.27,1.82-2.75,1.82-8.24,1.82-1.85,0-4.5.03-6.97.06-2.13.02-4.12.04-5.32.04-.31,0-.42-.03-.42-.66V8.56c0-1.17.33-1.17.61-1.17,1.5.05,4.59.11,7.58.16,2.75.05,5.6.1,7.21.15,3.54.1,5.48,1.56,6.11,2.88.56,1.37.56,2.98.56,3.78.08.97.24,1.85,1.21,1.85s1.15-1.11,1.21-1.63c.12-.77.24-3.39.34-5.5.06-1.26.11-2.35.14-2.72.16-1.51.39-2.54.56-3.29.12-.56.21-.97.21-1.29,0-.65-.4-1.16-.92-1.16Z"/>
    <path class="b" d="M637.87,59.17c-1,0-1.21.65-1.49,2.23-.38,1.8-1.63,4.72-3.21,6.58-3.87,4.69-9.09,5.58-17.37,5.58-3.54,0-6.74-.65-9.64-1.79-1.82-.75-3.63-1.71-5.38-2.89-10.15-7.1-14.97-20.87-14.97-31.15,0-11.99,2.78-20.28,8.75-26.06,4.42-4.24,10.1-6.21,17.87-6.21,8.23,0,15.99,2.49,19.3,6.2,2.2,2.42,3.58,5.84,3.68,9.15,0,.84,0,2.58,1.21,2.58,1.14,0,1.31-1.26,1.4-2.66.1-1.05.12-3.04.15-5.15.02-2.05.05-4.18.14-5.8.12-2.14.27-3.43.37-4.29.07-.58.11-.96.11-1.3,0-.64-.11-1.34-1.38-1.46-1.5-.16-3.15-.49-4.89-.83-1.6-.32-3.25-.65-4.99-.89-4.18-.58-7.86-1.02-13.95-1.02-13.19,0-22.88,3.44-30.51,10.81-10.49,10.15-11.31,23.95-11.31,27.94,0,12.59,4.03,22.71,11.98,30.07h0c8.27,7.58,18.79,11.11,33.09,11.11,5.71,0,13.27-.62,17.38-2.35,1.66-.72,2.13-1.27,2.64-3.1.99-3.55,2.12-12.35,2.12-13.54,0-1.46-.61-1.77-1.11-1.77Z"/>
    <path class="b" d="M699.5,62.21c-1.12,0-1.24,1.13-1.3,1.75-.19,1.9-1.33,4.67-2.44,5.94-2.25,2.57-5.67,2.75-11.04,2.75-7.67,0-9.94-.76-11.45-2.16-1.93-1.75-1.93-8.8-1.93-21.6v-17.83c0-15.45,0-18.23.19-21.47.2-3.69,1.05-5.09,3.35-5.54,1.18-.21,2.71-.3,3.7-.3.64,0,1.98,0,1.98-1.16,0-1.02-1.09-1.16-2.27-1.16-2.1,0-5.22.1-7.97.18-2.19.07-4.08.12-5.09.12-1.11,0-2.85-.06-4.87-.12-2.68-.09-5.71-.18-8.28-.18h0c-.81,0-1.33.06-1.68.21-.45.18-.67.5-.67.95,0,1.16,1.32,1.16,1.88,1.16,1.28,0,2.38.1,3.11.3,3.12.7,3.75,2.34,3.93,5.55.19,3.23.19,6.02.19,21.46v17.83c0,9.29,0,17.31-.48,21.55-.35,2.71-.79,4.98-2.59,5.36-1.15.27-2.26.4-3.4.4-.44,0-1.79,0-1.79,1.06,0,.84.73,1.26,2.17,1.26,2.23,0,4.36-.08,6.41-.16,1.97-.07,3.82-.15,5.68-.15,5.33,0,10.25.16,15.02.32,4.45.15,8.66.29,12.92.29,5.06,0,5.67-.52,6.29-2.92.78-2.98,1.45-10.54,1.45-11.71,0-.97,0-1.97-1.02-1.97Z"/>
    <path class="b" d="M777.64,1.42c-2.41,0-5.74.12-8.17.22-1.32.05-2.36.09-2.77.09-.02,0-.12,0-.28-.01-5.34-.24-8.8-.29-10.76-.29h0c-.76,0-1.25.06-1.6.21-.44.18-.66.5-.66.95,0,1.16,1.32,1.16,1.88,1.16,1.12,0,2.69.11,3.4.3,3.12.7,3.75,2.34,3.93,5.55.19,3.23.19,6.02.19,21.46v12.66c0,10.85-.4,19.58-5.5,24.96-4.61,4.87-10.67,5.39-13.07,5.39-3.31,0-7.65-.47-11.84-4.09-3.84-3.31-7.4-8.6-7.4-24.73v-14.18c0-15.45,0-18.23.19-21.47.2-3.69,1.05-5.09,3.35-5.54,1.13-.2,1.7-.3,2.74-.3.49,0,1.79,0,1.79-1.16,0-1.07-1.22-1.16-2.36-1.16-1.91,0-4.62.09-7.01.18-1.94.07-3.77.13-4.8.13-1.23,0-3.04-.06-5.13-.12-2.8-.09-5.98-.18-8.89-.18h0c-.81,0-1.32.06-1.68.21-.45.18-.67.5-.67.95,0,1.16,1.32,1.16,1.88,1.16,1.23,0,2.91.09,3.69.3,3.12.7,3.75,2.34,3.93,5.55.19,3.23.19,6.02.19,21.46v14.79c0,12.84,2.74,21.43,8.62,27.03,7.4,7.06,17.27,7.06,21.48,7.06,5.6,0,12.94-.84,20.13-7.36,8.09-7.32,9.2-19.07,9.2-30.68v-10.84c0-15.45,0-18.23.19-21.47.2-3.69,1.05-5.09,3.35-5.54,1.13-.2,1.7-.3,2.74-.3s1.98-.14,1.98-1.16-1.09-1.16-2.27-1.16Z"/>
    <path class="b" d="M825.75,34.51c5.75-4.91,9.55-9.84,9.55-17.64,0-3.62-1.49-15.45-20.7-15.45-1.49,0-3.09.06-4.8.13-2.04.08-4.35.17-6.91.17-.73,0-2.04-.04-3.7-.1-2.62-.09-6.2-.21-9.36-.21h0c-.81,0-1.33.06-1.68.21-.45.18-.67.5-.67.95,0,1.16,1.32,1.16,1.88,1.16,1.23,0,2.91.09,3.69.3,3.12.7,3.75,2.34,3.93,5.55.19,3.23.19,6.02.19,21.46v17.83c0,9.29,0,17.31-.48,21.55-.38,2.9-.73,4.7-2.43,5.27-.88.31-2.21.49-3.56.49-.44,0-1.79,0-1.79,1.06,0,.84.73,1.26,2.17,1.26,2.23,0,4.36-.08,6.41-.16,1.97-.07,3.82-.15,5.68-.15,2.63,0,5.07.16,7.44.32,2.23.15,4.34.29,6.48.29,17.88,0,25.88-11.22,25.88-22.34,0-5.45-1.97-10.32-5.85-14.49-2.96-3.18-6.99-5.83-11.38-7.48ZM820.87,32.08c-1.66,1.54-3.89,1.86-6.74,1.86-2.14,0-3.6-.1-4.45-.3-.23-.06-.49-.13-.49-.87V7.75c0-1.08.18-1.33.67-1.48.93-.2,1.8-.2,3.12-.2,4.54,0,11.75,4.2,11.75,15.45,0,4.76-1.33,8.4-3.86,10.56ZM809.19,39.05c0-.46.17-.46.33-.46,1.44,0,2.39,0,4.11.1,3.62.2,5.82.86,7.83,2.38,8.31,6.12,9.21,16,9.21,19.96,0,12.11-9.47,12.72-11.37,12.72-2.18,0-4.34-.09-6.91-1.2-2.93-1.26-3.21-2.81-3.21-9.5v-24.01Z"/>
  </g>
  <g>
    <g>
      <path class="b" d="M78,178.27c-.95,0-2.41-.07-3.97-.4-2.15-.54-4.82-2.26-8.28-10.89-3.45-8.64-9.92-25.77-15.12-39.53-4.12-10.91-7.68-20.33-8.69-22.78-1.02-2.48-1.73-3.4-2.63-3.4-1.08,0-1.8,1.36-2.92,4.21l-24.09,63.63c-2.09,5.5-3.89,8.4-7.96,8.96-.76.1-1.9.2-2.75.2-1.32,0-1.59.58-1.59,1.06,0,1.17,1.07,1.26,2.07,1.26,3.42,0,6.91-.14,9.22-.23,1.03-.04,1.78-.07,2.1-.07,1.47,0,3.26.08,5,.15,1.78.08,3.62.15,5.18.15.61,0,1.88,0,1.88-1.26,0-.89-.59-1.06-1.69-1.06h-1.44c-3.18,0-3.59-1.54-3.59-2.89,0-1.12.45-3.51,1.43-6.1l5.19-14.5c.18-.58.32-.64.63-.64h21.41c.38,0,.57.14.72.54l7.68,21.49c.24.62.14,1.08,0,1.36-.15.31-.42.55-.66.63-.39.04-1.57.17-1.57,1.16,0,.92.92.97,2.45,1.06,7.68.2,15.49.2,18.82.2,3.56,0,4.67-.17,4.67-1.26,0-.7-.5-1.06-1.5-1.06ZM45.8,148.51s-.12.07-.24.07h-17.66s-.11,0-.13-.04c-.03-.04-.05-.16-.01-.34l8.83-24.93c.15-.48.27-.6.27-.63.03.02.15.14.31.63l8.64,25.02c.03.09.03.17,0,.21Z"/>
      <path class="b" d="M131.57,102.78c-.3,0-.78.11-1.58.28-.31.07-.66.15-1.05.23h-.07c-1.4.21-3.51.5-6.51.5h-38.01c-3.05,0-6.72-.19-9.58-.51-1.43-.12-2.34-.54-3-.85-.45-.21-.8-.37-1.15-.37-.86,0-1.15,1-1.4,2.12-.15.62-2.02,10.03-2.02,11.71,0,.97.13,1.87,1.11,1.87.86,0,1.14-.75,1.3-1.41.13-.56.52-1.76,1.6-3.47,1.42-2.2,3.85-2.63,9.11-2.82,3.17-.07,6.87-.18,10.13-.28,1.44-.04,2.78-.08,3.92-.12v41.28c0,9.29,0,17.31-.48,21.56-.25,2.55-.74,4.96-2.59,5.35-1.15.27-2.26.4-3.4.4-.44,0-1.79,0-1.79,1.06,0,.84.73,1.26,2.17,1.26,2.19,0,5.06-.1,7.59-.18,1.91-.06,3.56-.12,4.51-.12,1.06,0,2.68.05,4.55.1,2.98.09,6.68.2,10.52.2,1.32,0,2.07-.46,2.07-1.26,0-.48-.31-1.06-1.79-1.06s-3.53-.2-4.86-.4c-2.54-.36-3.22-2.2-3.53-5.25-.48-4.34-.48-12.37-.48-21.65v-41.29c5.33.1,9.31.2,11.84.3,9.31.22,10.94,3.5,11.08,5.42,0,.16.02.37.05.59.02.19.05.38.05.54.08,1.32.23,2.26,1.31,2.26.94,0,1.05-1.2,1.11-1.87,0-1.38.08-3.95.16-6.43.07-2.22.13-4.31.13-5.32,0-1.28,0-2.38-1.02-2.38Z"/>
    </g>
    <path class="b" d="M199.64,103.49c-3.35,0-6.86.1-9.69.19-2.07.06-3.86.12-5.1.12-1.13,0-2.85-.05-4.85-.12-2.68-.08-6.02-.19-8.97-.19h0c-.81,0-1.33.06-1.68.21-.45.18-.67.5-.67.95,0,1.16,1.32,1.16,1.88,1.16,1.23,0,2.91.09,3.69.3,3.12.7,3.75,2.34,3.93,5.55.19,3.23.19,6.02.19,21.46v17.83c0,9.29,0,17.31-.48,21.55-.35,2.71-.79,4.98-2.59,5.36-1.15.27-2.26.4-3.4.4-.44,0-1.79,0-1.79,1.06,0,.84.73,1.26,2.17,1.26.93,0,1.98-.05,3.1-.1,1.18-.05,2.39-.11,3.54-.11,2.3-.1,4.43-.1,5.46-.1,2.16,0,5.16.25,8.34.52l1.04.09c3.69.31,7.59.61,11.06.61,6.37,0,22.27-1.17,32.34-12.04,3.17-3.4,10.53-12.98,10.53-28.44,0-12.9-5.1-21.21-9.38-25.9-10.54-11.63-26.8-11.63-38.68-11.63ZM190.86,144.27v-12.77c0-7.88,0-16.82.1-20.26,0-1.02.24-1.44,1.02-1.81.66-.35,4.01-.68,6.12-.68,11.52,0,20.38,3.29,27.08,10.06,2.75,2.77,9.14,10.76,9.14,25.15,0,11.98-2.61,20.17-7.98,25.04-5.61,5.13-11.96,7.23-21.91,7.23-9.1,0-11.77-3.01-12.37-3.94-.77-1.12-.94-5.64-1.01-7.57-.1-1.91-.19-9.54-.19-20.45Z"/>
    <path class="b" d="M305.04,164.69c-.93,0-1.13.72-1.3,1.73-.68,4.17-1.81,6.16-4.18,7.31-2.44,1.19-6.49,1.19-8.91,1.19-9.96,0-11.09-1.67-11.27-8.27-.07-2.08-.04-7.31-.02-11.52,0-1.69.02-3.18.02-4.18v-8c0-.76.17-.76.33-.76,2.15,0,11.75.1,13.6.3,3.03.35,4.63,1.51,5.16,3.76.22,1.02.27,1.61.33,2.3.02.19.03.39.05.59,0,.75.3,1.87,1.11,1.87,1.11,0,1.11-1.36,1.11-2.17,0-.38.09-1.79.18-3.29.08-1.25.16-2.57.2-3.48.25-3.42.51-5.31.65-6.32.07-.54.12-.87.12-1.09,0-.96-.65-1.06-.92-1.06-.57,0-.98.5-1.6,1.25l-.13.16c-.81.95-2.18,1.23-4.44,1.43-1.42.13-6.86.2-15.34.2-.27,0-.42-.04-.42-.86v-25.63c0-.76.23-.76.42-.76,1.8,0,11.97.2,13.6.4,4.81.61,5.62,1.83,6.23,3.49.46,1.18.56,2.78.56,3.15,0,.72,0,2.07,1.11,2.07.96,0,1.14-.99,1.21-1.33.13-.8.25-2.92.35-4.63.05-.93.1-1.72.13-2.08.19-3.13.47-4.68.64-5.6.08-.45.13-.75.13-1,0-.29,0-1.16-.83-1.16-.34,0-.69.12-1.03.24-.19.07-.38.13-.57.17-.85.23-2.74.45-4.08.6-1.64.09-17.32.1-23.98.1-2.57,0-4.99-.08-7.33-.16-2.24-.07-4.35-.15-6.49-.15-1.14,0-2.36.09-2.36,1.16,0,1.16,1.32,1.16,1.88,1.16,1.23,0,2.91.09,3.69.3,3.12.7,3.75,2.34,3.93,5.55.19,3.23.19,6.02.19,21.46v17.83c0,9.29,0,17.31-.48,21.55-.35,2.71-.79,4.98-2.59,5.36-1.15.27-2.26.4-3.4.4-.44,0-1.79,0-1.79,1.06,0,.84.73,1.26,2.17,1.26,2.23,0,4.36-.08,6.41-.16,1.97-.07,3.82-.15,5.68-.15,4.94,0,9.58.16,14.06.32,4.31.15,8.37.29,12.52.29,3.61,0,4.71,0,5.43-2.83.49-2.08,1.25-8.95,1.25-11.3,0-1.02,0-2.07-1.02-2.07Z"/>
    <path class="b" d="M364.75,164.69c-.93,0-1.13.72-1.3,1.73-.68,4.17-1.81,6.16-4.18,7.31-2.44,1.19-6.49,1.19-8.91,1.19-9.96,0-11.09-1.67-11.27-8.27-.07-2.08-.04-7.31-.02-11.52,0-1.69.02-3.18.02-4.18v-8c0-.76.17-.76.33-.76,2.15,0,11.75.1,13.6.3,3.03.35,4.63,1.51,5.16,3.76.22,1.02.27,1.61.33,2.3.02.19.03.39.05.59,0,.75.3,1.87,1.11,1.87,1.11,0,1.11-1.36,1.11-2.17,0-.38.09-1.79.18-3.29.08-1.25.16-2.57.2-3.48.25-3.42.51-5.31.65-6.32.07-.54.12-.87.12-1.09,0-.96-.64-1.06-.92-1.06-.57,0-.98.5-1.6,1.25l-.13.16c-.81.95-2.18,1.23-4.44,1.43-1.42.13-6.86.2-15.34.2-.27,0-.42-.04-.42-.86v-25.63c0-.76.23-.76.42-.76,1.8,0,11.97.2,13.6.4,4.81.61,5.62,1.83,6.23,3.49.46,1.18.56,2.78.56,3.15,0,.72,0,2.07,1.11,2.07.96,0,1.14-.99,1.21-1.33.13-.8.25-2.92.35-4.63.05-.93.1-1.72.13-2.08.19-3.13.47-4.68.64-5.6.08-.45.13-.75.13-1,0-.29,0-1.16-.83-1.16-.34,0-.69.12-1.03.24-.19.07-.38.13-.57.17-.85.23-2.74.45-4.08.6-1.64.09-17.32.1-23.98.1-2.57,0-4.99-.08-7.33-.16-2.24-.07-4.35-.15-6.49-.15-1.14,0-2.36.09-2.36,1.16,0,1.16,1.32,1.16,1.88,1.16,1.23,0,2.91.09,3.69.3,3.12.7,3.75,2.34,3.93,5.55.19,3.23.19,6.02.19,21.46v17.83c0,9.29,0,17.31-.48,21.55-.35,2.71-.79,4.98-2.59,5.36-1.15.27-2.26.4-3.4.4-.44,0-1.79,0-1.79,1.06,0,.84.73,1.26,2.17,1.26,2.23,0,4.36-.08,6.41-.16,1.97-.07,3.82-.15,5.68-.15,4.94,0,9.58.16,14.06.32,4.31.15,8.37.29,12.52.29,3.61,0,4.71,0,5.43-2.83.49-2.08,1.25-8.95,1.25-11.3,0-1.02,0-2.07-1.02-2.07Z"/>
    <path class="b" d="M451.34,178.27c-.74,0-1.58-.1-2.64-.3l-.09-.02c-1.43-.3-5.22-1.1-10.43-6.79-4.65-5.16-9.86-12.12-16.46-20.92-1.35-1.81-2.76-3.68-4.22-5.62,8.75-7.54,12.48-14.32,12.48-22.63,0-7.38-4.34-12.44-6.63-14.08-5.37-3.88-12.01-4.4-17.81-4.4-1.46,0-3.89.07-6.48.15-2.65.08-5.39.16-7.06.16-.77,0-2.13-.04-3.85-.1-2.75-.09-6.18-.2-9.31-.2h0c-.81,0-1.32.06-1.68.21-.45.18-.67.5-.67.95,0,1.16,1.32,1.16,1.88,1.16,1.23,0,2.91.09,3.69.3,3.12.7,3.75,2.34,3.93,5.55.19,3.23.19,6.02.19,21.46v17.83c0,9.29,0,17.31-.48,21.55-.35,2.71-.79,4.98-2.59,5.36-1.15.27-2.26.4-3.4.4-.44,0-1.79,0-1.79,1.06,0,.84.73,1.26,2.17,1.26,2.28,0,5.35-.11,7.81-.19,1.69-.06,3.16-.11,3.9-.11.48,0,1.64.04,3.1.08,2.91.09,7.31.22,11.01.22,1.44,0,2.17-.42,2.17-1.26,0-.32-.14-1.06-1.4-1.06-1.17,0-3.28-.21-4.67-.4-2.56-.36-3.22-2.16-3.53-5.35-.48-4.24-.48-12.31-.48-21.65v-1.42c0-.47.18-.56.51-.56l8.07.2c.65,0,1.13.1,1.53.62.71.87,2.5,3.55,4.58,6.67,1.54,2.31,3.29,4.93,4.92,7.3,5.61,8.14,9.2,12.69,13.23,14.97,2.61,1.48,5.13,1.96,10.39,1.96h9.41c.67,0,2.07,0,2.07-1.26,0-.32-.14-1.06-1.4-1.06ZM418.17,127.05c0,9.3-3.49,13.39-5.56,15-1.65,1.25-2.84,1.67-6.66,1.67-2.74,0-5.44-.37-7.19-.99-.53-.24-.72-.52-.72-1.6v-30.8c0-.75.16-1.02.69-1.18.86-.27,2.4-.39,5.01-.39,5.36,0,14.44,3.85,14.44,18.29Z"/>
    <g>
      <path class="b" d="M543.12,161.24c-1,0-1.21.65-1.49,2.23-.38,1.8-1.63,4.72-3.21,6.58-3.87,4.69-9.09,5.58-17.37,5.58-3.54,0-6.74-.65-9.64-1.79-1.82-.75-3.63-1.71-5.38-2.89-10.15-7.1-14.97-20.87-14.97-31.15,0-11.99,2.78-20.28,8.75-26.06,4.42-4.24,10.1-6.21,17.87-6.21,8.23,0,15.99,2.49,19.3,6.2,2.2,2.42,3.58,5.84,3.68,9.15,0,.84,0,2.58,1.21,2.58,1.14,0,1.31-1.26,1.4-2.66.1-1.05.12-3.04.15-5.15.02-2.05.05-4.18.14-5.8.12-2.14.27-3.43.37-4.29.07-.58.11-.96.11-1.3,0-.64-.11-1.34-1.38-1.46-1.5-.16-3.15-.49-4.89-.83-1.6-.32-3.25-.65-4.99-.89-4.18-.58-7.86-1.02-13.95-1.02-13.19,0-22.88,3.44-30.51,10.81-10.49,10.15-11.31,23.95-11.31,27.94,0,12.59,4.03,22.71,11.98,30.07h0c8.27,7.58,18.79,11.11,33.09,11.11,5.71,0,13.27-.62,17.38-2.35,1.66-.72,2.13-1.27,2.64-3.1.99-3.55,2.12-12.35,2.12-13.54,0-1.46-.61-1.77-1.11-1.77Z"/>
      <path class="b" d="M713.42,178.27c-.95,0-2.41-.07-3.97-.4-2.15-.54-4.82-2.26-8.28-10.89-3.45-8.64-9.92-25.77-15.12-39.53-4.12-10.91-7.68-20.33-8.69-22.78-1.02-2.48-1.73-3.4-2.63-3.4-1.08,0-1.8,1.36-2.92,4.21l-24.09,63.63c-2.09,5.5-3.89,8.4-7.96,8.96-.76.1-1.9.2-2.75.2-.34,0-.6.04-.82.1-.24-.06-.54-.1-.92-.1-1.43,0-3.53-.2-4.86-.4-2.54-.36-3.22-2.2-3.53-5.25-.48-4.34-.48-12.37-.48-21.65v-17.83c0-15.45,0-18.23.19-21.47.2-3.69,1.05-5.09,3.35-5.54,1.19-.21,2.01-.3,2.74-.3.64,0,1.98,0,1.98-1.16,0-1.02-1.09-1.16-2.27-1.16-2.1,0-4.92.1-7.4.18-1.98.07-3.68.12-4.69.12-1.07,0-2.74-.05-4.68-.11-2.72-.08-6.1-.19-9.14-.19h0c-.76,0-1.25.06-1.6.21-.44.18-.66.5-.66.95,0,1.16,1.32,1.16,1.88,1.16,1.23,0,2.91.09,3.69.3,3.12.7,3.75,2.34,3.93,5.55.19,3.23.19,6.02.19,21.46v2.13c0,.29-.12.46-.33.46h-36.67c-.21,0-.33-.16-.33-.46v-2.13c0-15.45,0-18.23.19-21.47.21-3.81,1.08-5.29,3.33-5.64.75-.1,1.98-.2,2.75-.2,1.72,0,1.98-.73,1.98-1.16,0-1.02-1.09-1.16-2.27-1.16-2.1,0-4.92.1-7.4.18-1.98.07-3.68.12-4.69.12-1.07,0-2.74-.05-4.68-.11-2.72-.08-6.1-.19-9.14-.19h0c-.76,0-1.25.06-1.6.21-.44.18-.66.5-.66.95,0,1.16,1.32,1.16,1.88,1.16,1.23,0,2.91.09,3.69.3,3.12.7,3.75,2.34,3.93,5.55.19,3.23.19,6.02.19,21.46v17.83c0,9.29,0,17.31-.48,21.55-.35,2.71-.79,4.98-2.59,5.36-1.15.27-2.26.4-3.4.4-.44,0-1.79,0-1.79,1.06,0,.84.73,1.26,2.17,1.26,2.19,0,5.06-.1,7.59-.18,1.91-.06,3.56-.12,4.51-.12,1.06,0,2.69.05,4.57.1,2.95.09,6.63.2,10.4.2,1.89,0,2.17-.79,2.17-1.26s-.31-1.06-1.79-1.06-3.53-.2-4.86-.4c-2.54-.36-3.22-2.2-3.53-5.25-.48-4.34-.48-12.37-.48-21.65v-8.92c0-.3.1-.36.33-.36h36.67c.15,0,.33.09.33.36v8.92c0,9.29,0,17.31-.48,21.55-.35,2.71-.79,4.98-2.59,5.36-1.15.27-2.26.4-3.4.4-.44,0-1.79,0-1.79,1.06,0,1.26,1.71,1.26,2.27,1.26,2.12,0,4.96-.1,7.46-.18,1.92-.07,3.58-.12,4.54-.12,1.06,0,2.69.05,4.57.1,2.95.09,6.63.2,10.4.2.54,0,.94-.07,1.25-.17.38.15.87.17,1.35.17,3.42,0,6.91-.14,9.22-.23,1.03-.04,1.78-.07,2.1-.07,1.47,0,3.26.08,5,.15,1.78.08,3.62.15,5.18.15.61,0,1.88,0,1.88-1.26,0-.89-.59-1.06-1.69-1.06h-1.44c-3.18,0-3.59-1.54-3.59-2.89,0-1.12.45-3.51,1.43-6.1l5.19-14.5c.18-.58.32-.64.63-.64h21.41c.38,0,.57.14.72.54l7.68,21.49c.24.62.14,1.08,0,1.36-.15.31-.42.55-.66.63-.39.04-1.57.17-1.57,1.16,0,.92.92.97,2.45,1.06,7.68.2,15.49.2,18.82.2,3.56,0,4.67-.17,4.67-1.26,0-.7-.5-1.06-1.5-1.06ZM681.22,148.51s-.12.07-.24.07h-17.66s-.11,0-.13-.04c-.03-.04-.05-.16-.01-.34l8.83-24.93c.15-.48.27-.6.27-.63.03.02.15.14.31.63l8.64,25.02c.03.09.03.17,0,.21Z"/>
      <path class="b" d="M743.24,133.94l-2.69-2.13c-7.63-6.11-10.08-9.61-10.08-14.39,0-6.19,4.39-10.19,11.17-10.19,5.94,0,8.7,2.78,10.26,4.87,2,2.61,2.44,5.67,2.44,6.54,0,.51,0,2.07,1.21,2.07,1.09,0,1.31-1.26,1.31-3.29,0-5.6.19-8.67.31-10.51.05-.73.08-1.26.08-1.65,0-.97-.78-1.28-1.52-1.46-1.19-.34-2.48-.64-3.96-.92-2.16-.38-5.11-.81-8.88-.81-13.2,0-22.42,7.98-22.42,19.4,0,8.81,4.14,15.83,14.3,24.21l4.42,3.65c7.73,6.39,9.32,11.03,9.32,16.02,0,7.34-6.5,11.3-12.61,11.3-3.98,0-11.02-1.31-13.49-10.05-.51-1.83-.85-3.88-.85-5.1,0-.54,0-1.97-1.21-1.97-1.08,0-1.32,1.53-1.4,2.87l-.02.3c-.11,1.91-.46,7.71-.46,12.99,0,2.3.33,2.92,1.97,3.67,3.99,1.86,8.22,2.66,14.12,2.66s11.22-1.37,15.4-4.2c7.95-5.47,9.13-13.52,9.13-17.84,0-9.81-4.29-16.87-15.84-26.03Z"/>
      <path class="b" d="M817.58,164.69c-.93,0-1.13.72-1.3,1.73-.68,4.17-1.81,6.16-4.18,7.31-2.44,1.19-6.49,1.19-8.91,1.19-9.96,0-11.09-1.67-11.27-8.27-.07-2.08-.04-7.31-.02-11.52,0-1.69.02-3.18.02-4.18v-8c0-.76.17-.76.33-.76,2.15,0,11.75.1,13.6.3,3.03.35,4.63,1.51,5.16,3.76.22,1.02.27,1.61.33,2.3.02.19.03.39.05.59,0,.75.3,1.87,1.11,1.87,1.11,0,1.11-1.36,1.11-2.17,0-.38.09-1.79.18-3.29.08-1.25.16-2.57.2-3.48.25-3.42.51-5.31.65-6.32.07-.54.12-.87.12-1.09,0-.96-.64-1.06-.92-1.06-.57,0-.98.5-1.6,1.25l-.13.16c-.81.95-2.18,1.23-4.44,1.43-1.42.13-6.86.2-15.34.2-.27,0-.42-.04-.42-.86v-25.63c0-.76.23-.76.42-.76,1.8,0,11.97.2,13.6.4,4.81.61,5.62,1.83,6.23,3.49.46,1.18.56,2.78.56,3.15,0,.72,0,2.07,1.11,2.07.96,0,1.14-.99,1.21-1.33.13-.8.25-2.92.35-4.63.05-.93.1-1.72.13-2.08.19-3.13.47-4.68.64-5.6.08-.45.13-.75.13-1,0-.29,0-1.16-.83-1.16-.34,0-.69.12-1.03.24-.19.07-.38.13-.57.17-.85.23-2.74.45-4.08.6-1.64.09-17.32.1-23.98.1-2.57,0-4.99-.08-7.33-.16-2.24-.07-4.35-.15-6.49-.15-1.14,0-2.36.09-2.36,1.16,0,1.16,1.32,1.16,1.88,1.16,1.23,0,2.91.09,3.69.3,3.12.7,3.75,2.34,3.93,5.55.19,3.23.19,6.02.19,21.46v17.83c0,9.29,0,17.31-.48,21.55-.35,2.71-.79,4.98-2.59,5.36-1.15.27-2.26.4-3.4.4-.44,0-1.79,0-1.79,1.06,0,.84.73,1.26,2.17,1.26,2.23,0,4.36-.08,6.41-.16,1.97-.07,3.82-.15,5.68-.15,4.94,0,9.58.16,14.06.32,4.31.15,8.37.29,12.52.29,3.61,0,4.71,0,5.43-2.83.49-2.08,1.25-8.95,1.25-11.3,0-1.02,0-2.07-1.02-2.07Z"/>
    </g>
  </g>
</svg>