<?xml version="1.0" encoding="UTF-8"?>
<svg id="a" data-name="Layer 1" xmlns="http://www.w3.org/2000/svg" width="3354.11" height="713.5" viewBox="0 0 3354.11 713.5">
  <defs>
    <style>
      .b {
        fill: #34e0a1;
      }

      .c {
        fill: #fff;
      }
    </style>
  </defs>
  <path class="c" d="M3335.26,476.77c-10.4,0-18.85,8.45-18.85,18.85s8.45,18.85,18.85,18.85,18.85-8.45,18.85-18.85c0-10.4-8.45-18.85-18.85-18.85ZM3335.26,511.48c-8.77,0-15.86-7.14-15.86-15.86s7.14-15.86,15.86-15.86,15.9,7.14,15.9,15.86-7.14,15.86-15.9,15.86ZM3341.4,492.39c0-3.43-2.43-5.46-6.02-5.46h-6.02v17.18h2.95v-6.22h3.23l3.11,6.22h3.19l-3.43-6.86c1.84-.84,2.99-2.51,2.99-4.86ZM3335.26,495.22h-2.91v-5.7h2.91c1.99,0,3.19,1,3.19,2.83,0,1.87-1.24,2.87-3.19,2.87ZM1063.51,285.96v-45.6h-69.91v271.29h69.91v-162.67c0-29.46,18.89-43.93,48.35-43.93h38.27v-64.69h-32.69c-25.59,0-47.83,13.35-53.93,45.6ZM1215.61,133.05c-23.92,0-42.25,18.89-42.25,42.81s18.34,42.25,42.25,42.25,42.25-18.89,42.25-42.25c0-23.92-18.34-42.81-42.25-42.81ZM1180.74,511.64h69.76V240.36h-69.76v271.29ZM1582.77,376c0,77.45-62.78,140.23-140.23,140.23-31.25,0-59.59-10.24-82.31-27.54v102.6h-69.76V240.36h69.76v22.96c22.72-17.3,51.06-27.54,82.31-27.54,77.45,0,140.23,62.78,140.23,140.23ZM1512.57,376c0-42.05-34.12-76.17-76.17-76.17s-76.17,34.12-76.17,76.17,34.12,76.17,76.17,76.17,76.17-34.08,76.17-76.17ZM2795.15,352.2l-40.7-11.16c-26.78-6.98-37.19-15.19-37.19-29.34s14.67-23.44,35.64-23.44,35.64,13.07,35.64,29.82v1.55h64.29v-1.55c0-49.23-40.14-82.31-99.93-82.31s-102.2,33.04-102.2,78.6c0,35.44,23.48,62.14,64.45,73.22l38.98,10.64c29.61,8.21,40.62,17.3,40.62,33.6,0,17.18-15.9,28.74-39.58,28.74s-41.29-15.63-41.29-38.82v-1.55h-68.24v1.55c0,55.64,44.8,94.55,108.98,94.55s106.71-37.99,106.71-90.28c0-25.67-11.48-59.23-66.17-73.82ZM1830.22,240.36h69.75v271.29h-69.75v-22.96c-22.72,17.3-51.06,27.54-82.31,27.54-77.45,0-140.23-62.78-140.23-140.23s62.78-140.23,140.23-140.23c31.25,0,59.59,10.24,82.31,27.54v-22.96ZM1830.22,376h0c0-42.09-34.12-76.17-76.17-76.17s-76.17,34.12-76.17,76.17,34.12,76.17,76.17,76.17,76.17-34.08,76.17-76.17ZM2151.85,143.82h69.76v367.87h-69.76v-22.96c-22.72,17.3-51.06,27.54-82.31,27.54-77.45,0-140.23-62.78-140.23-140.23s62.78-140.23,140.23-140.23c31.25,0,59.59,10.24,82.31,27.54v-119.54ZM2151.85,376c0-42.05-34.12-76.17-76.17-76.17s-76.17,34.12-76.17,76.17,34.08,76.17,76.17,76.17,76.17-34.08,76.17-76.17ZM2545.47,511.64h69.75V240.36h-69.75v271.29ZM2580.35,133.05c-23.92,0-42.25,18.89-42.25,42.81s18.34,42.25,42.25,42.25,42.25-18.89,42.25-42.25-18.34-42.81-42.25-42.81ZM3162.82,376c0,77.45-62.78,140.23-140.23,140.23s-140.23-62.78-140.23-140.23,62.78-140.23,140.23-140.23,140.23,62.78,140.23,140.23ZM3098.77,376c0-42.05-34.12-76.17-76.17-76.17s-76.17,34.12-76.17,76.17,34.08,76.17,76.17,76.17,76.17-34.08,76.17-76.17ZM1027.79,143.82h-267.58v62.22h99.05v305.61h69.52V206.04h99.05v-62.22h-.04ZM2381.01,437.35l-62.06-196.99h-73.26l93.07,271.29h83.95l93.63-271.29h-73.26l-62.06,196.99ZM3265.02,285.96v-45.6h-69.91v271.29h69.91v-162.67c0-29.46,18.9-43.93,48.35-43.93h38.27v-64.69h-32.68c-25.59,0-47.79,13.35-53.93,45.6Z"/>
  <circle class="b" cx="356.75" cy="356.75" r="356.75"/>
  <path class="c" d="M577.09,287.15l43.05-46.84h-95.47c-47.79-32.65-105.51-51.66-167.93-51.66s-119.9,19.05-167.61,51.66h-95.7l43.05,46.84c-26.39,24.08-42.93,58.75-42.93,97.26,0,72.67,58.91,131.58,131.58,131.58,34.52,0,65.97-13.31,89.45-35.08l42.17,45.92,42.17-45.88c23.48,21.76,54.89,35.04,89.41,35.04,72.67,0,131.66-58.91,131.66-131.58.04-38.55-16.5-73.22-42.89-97.26ZM225.17,473.46c-49.19,0-89.05-39.86-89.05-89.05s39.86-89.05,89.05-89.05,89.05,39.86,89.05,89.05-39.86,89.05-89.05,89.05ZM356.79,381.82c0-58.6-42.61-108.9-98.85-130.38,30.41-12.72,63.78-19.77,98.81-19.77s68.44,7.05,98.85,19.77c-56.2,21.52-98.81,71.79-98.81,130.38ZM488.37,473.46c-49.19,0-89.05-39.86-89.05-89.05s39.86-89.05,89.05-89.05,89.05,39.86,89.05,89.05-39.86,89.05-89.05,89.05ZM488.37,337.69c-25.79,0-46.68,20.89-46.68,46.68s20.89,46.68,46.68,46.68,46.68-20.89,46.68-46.68c0-25.75-20.89-46.68-46.68-46.68ZM271.85,384.41c0,25.79-20.89,46.68-46.68,46.68s-46.68-20.89-46.68-46.68,20.89-46.68,46.68-46.68c25.79-.04,46.68,20.89,46.68,46.68Z"/>
</svg>