<?xml version="1.0" encoding="UTF-8"?>
<svg id="a" xmlns="http://www.w3.org/2000/svg" version="1.1" viewBox="0 0 597.6 597.6">
  <!-- Generator: Adobe Illustrator 29.4.0, SVG Export Plug-In . SVG Version: 2.1.0 Build 152)  -->
  <defs>
    <style>
      .st0 {
        fill: #14ab5b;
      }
    </style>
  </defs>
  <path class="st0" d="M512.7,466.7c-26.9-13.3-103.3-36.2-109-73.6-3.8-24.7-30.8-38.6-59.7-46.1v-2.7c-1.8-74.7-45.1-109.6-87.3-133.9-17.6-10.2-27-26.5-25.1-43.8,2-17.6,14.8-32.1,33.6-37.9l6.4-2-12.2-45.8-6.7,1.7c-42.4,10.8-67.8,42.8-68,83.7-29.4-30.9-29.9-80.6-.3-136.6l3.2-6.2L143.6,0l-3.2,6.4c-49.7,99.6-17.2,158.9-1,179.8,16.8,21.7,41.3,37.2,65,51.1h0c1.1.6,2.9,1.5,5.2,2.7,18.7,9.5,73.6,37.4,71.8,84.9-28.7-62.5-80.4-10.3-133.1-61.9-10.7,87.3,27.6,127.6,108.5,127.4-21.4,13.3-47,18.2-77.6,12.9-67.3,55.1-100.5,121.9-117.2,194.3h55.3c12-56.8,36.2-107.3,79-145.9-32.7,46.5-45.1,95.3-42.4,145.9h166.2c-2.5-9.6-4.1-20.2-4.8-31.9-37-10-68.6-29.9-54.2-83.6,4.1,40.2,30,59.2,55.7,64.5,27.1,5.8,55.9-14.9,84.9-21.9,27.1-6.5,54.8.2,74.4,21,69-25.9,73.9-60.8,36.8-79.1h0ZM352.1,421.5c-12.5-5.6-19.6-24.6-31.1-30.8,13.2,4.2,31.9-3.2,43.8,2.2,13.6,6,20.1,24.2,32.6,31.9-14.3-3.4-32.4,2.5-45.3-3.2h0s0,0,0,0Z"/>
  <path class="st0" d="M478,161l.3,7.1c1.3,29.6-10.4,50-36.6,63.4-.5-24-9.2-43.7-26.5-60l-4.6-4.3-36.7,31.9,5.1,5.3c9.9,10.3,14.9,20.2,14.7,28.6-.2,5.8-2.8,11.2-7.9,16-5.8,5.4-13.9,10-21.7,14.4-5.6,3.1-10.9,6.2-15.5,9.5,8,14,14,30.3,16.8,49.8,17.8-19.6,42.6-28.6,66.7-37.3,45.5-16.5,92.5-33.6,93.4-118.3v-7.3c0,0-47.5,1.4-47.5,1.4h0c0,0,0,0,0,0Z"/>
</svg>