<?xml version="1.0" encoding="UTF-8"?>
<svg id="a" data-name="Layer 1" xmlns="http://www.w3.org/2000/svg" width="473.81" height="597.58" viewBox="0 0 473.81 597.58">
  <defs>
    <style>
      .b {
        fill: #14ab5b;
      }
    </style>
  </defs>
  <path class="b" d="M450.86,466.73c-26.89-13.32-103.29-36.24-109-73.63-3.75-24.74-30.76-38.56-59.69-46.09l-.06-2.74c-1.76-74.72-45.06-109.59-87.2-133.85-17.63-10.16-27.03-26.5-25.1-43.77,1.96-17.6,14.83-32.13,33.58-37.92l6.44-1.99-12.23-45.78-6.72,1.71c-42.4,10.83-67.75,42.82-68.03,83.7-29.44-30.87-29.89-80.57-.28-136.56l3.25-6.16L81.69,0l-3.22,6.44c-49.67,99.57-17.24,158.92-.98,179.8,16.85,21.74,41.33,37.16,64.98,51.07h0c1.06.64,2.85,1.54,5.18,2.71,18.72,9.49,73.6,37.36,71.78,84.88-28.66-62.52-80.4-10.27-133.07-61.93-10.72,87.28,27.62,127.61,108.5,127.36-21.38,13.32-46.99,18.22-77.63,12.93C49.9,458.36,16.68,525.13,0,597.58h55.3c11.98-56.78,36.18-107.29,79.03-145.88-32.69,46.51-45.06,95.34-42.45,145.88h166.2c-2.52-9.57-4.14-20.15-4.76-31.87-36.97-9.99-68.59-29.92-54.21-83.62,4.06,40.24,30,59.16,55.66,64.53,27.15,5.76,55.91-14.94,84.85-21.86,27.15-6.49,54.77.25,74.44,21.04,69.01-25.86,73.88-60.78,36.83-79.08h-.03ZM290.17,421.5c-12.54-5.62-19.59-24.57-31.09-30.84,13.18,4.23,31.87-3.19,43.77,2.18,13.57,6.02,20.09,24.18,32.63,31.87-14.33-3.44-32.38,2.55-45.31-3.19v-.03Z"/>
  <path class="b" d="M416.16,161.02l.31,7.11c1.32,29.64-10.38,50.01-36.6,63.36-.48-23.98-9.18-43.68-26.45-59.97l-4.62-4.34-36.74,31.87,5.07,5.32c9.85,10.3,14.92,20.2,14.69,28.63-.17,5.82-2.83,11.19-7.92,15.98-5.76,5.37-13.85,9.96-21.69,14.38-5.57,3.13-10.89,6.16-15.45,9.46,8.03,13.96,13.96,30.31,16.76,49.78,17.83-19.56,42.65-28.6,66.74-37.33,45.5-16.54,92.54-33.64,93.36-118.32l.06-7.28-47.52,1.4v-.06Z"/>
</svg>