<?xml version="1.0" encoding="UTF-8"?>
<svg id="Layer_1" xmlns="http://www.w3.org/2000/svg" version="1.1" viewBox="0 0 32 32">
  <!-- Generator: Adobe Illustrator 29.4.0, SVG Export Plug-In . SVG Version: 2.1.0 Build 152)  -->
  <defs>
    <style>
      .st0 {
        fill: #1aab5b;
      }
    </style>
  </defs>
  <path class="st0" d="M16,.3C7.3.3.3,7.3.3,16s7,15.7,15.7,15.7,15.7-7,15.7-15.7c0-8.7-7-15.7-15.7-15.7ZM17.2,29.3v-9.6h3.6c.7,0,1.2-.5,1.2-1.2s-.5-1.2-1.2-1.2h-3.6v-3.6c0-1.3,1.1-2.4,2.4-2.4h2.4c.7,0,1.2-.5,1.2-1.2s-.5-1.2-1.2-1.2h-2.4c-2.7,0-4.8,2.2-4.8,4.8v3.6h-3.6c-.7,0-1.2.5-1.2,1.2s.5,1.2,1.2,1.2h3.6v9.6c-7.3-.7-12.7-7.1-12-14.5.7-7.3,7.1-12.7,14.5-12s12.7,7.1,12,14.5c-.6,6.4-5.7,11.5-12,12Z"/>
</svg>