<?xml version="1.0" encoding="UTF-8"?>
<svg id="Layer_1" xmlns="http://www.w3.org/2000/svg" version="1.1" viewBox="0 0 32 32">
  <!-- Generator: Adobe Illustrator 29.4.0, SVG Export Plug-In . SVG Version: 2.1.0 Build 152)  -->
  <defs>
    <style>
      .st0 {
        fill: #1aab5b;
      }
    </style>
  </defs>
  <path class="st0" d="M16,8.8c-4,0-7.2,3.2-7.2,7.2s3.2,7.2,7.2,7.2,7.2-3.2,7.2-7.2-3.2-7.2-7.2-7.2ZM16,20.8c-2.6,0-4.8-2.2-4.8-4.8s2.2-4.8,4.8-4.8,4.8,2.2,4.8,4.8-2.2,4.8-4.8,4.8ZM23.2.4h-14.4C4.1.4.4,4.1.4,8.8v14.4c0,4.7,3.7,8.4,8.4,8.4h14.4c4.7,0,8.4-3.7,8.4-8.4v-14.4C31.6,4.1,27.9.4,23.2.4ZM29.2,23.2c0,3.4-2.6,6-6,6h-14.4c-3.4,0-6-2.6-6-6v-14.4c0-3.4,2.6-6,6-6h14.4c3.4,0,6,2.6,6,6v14.4ZM25.6,8.2c0,1-.8,1.8-1.8,1.8s-1.8-.8-1.8-1.8.8-1.8,1.8-1.8,1.8.8,1.8,1.8Z"/>
</svg>