<?xml version="1.0" encoding="UTF-8"?>
<svg id="a" data-name="Layer 1" xmlns="http://www.w3.org/2000/svg" width="32" height="32" viewBox="0 0 32 32">
  <defs>
    <style>
      .b {
        fill: #01a95b;
      }
    </style>
  </defs>
  <path class="b" d="M16,8c-2.76,0-5,2.24-5,5s2.24,5,5,5,5-2.24,5-5-2.24-5-5-5ZM16,16c-1.66,0-3-1.34-3-3s1.34-3,3-3,3,1.34,3,3-1.34,3-3,3ZM16,2c-6.07,0-10.99,4.93-11,11,0,3.92,1.81,8.08,5.25,12.03,1.54,1.78,3.28,3.39,5.18,4.79.34.24.8.24,1.15,0,1.9-1.4,3.63-3,5.17-4.79,3.43-3.95,5.25-8.11,5.25-12.03,0-6.07-4.93-10.99-11-11ZM16,27.75c-2.07-1.62-9-7.59-9-14.75,0-4.97,4.03-9,9-9s9,4.03,9,9c0,7.15-6.93,13.12-9,14.75Z"/>
</svg>