<?xml version="1.0" encoding="UTF-8"?>
<svg id="Layer_1" xmlns="http://www.w3.org/2000/svg" version="1.1" viewBox="0 0 32 32">
  <!-- Generator: Adobe Illustrator 29.4.0, SVG Export Plug-In . SVG Version: 2.1.0 Build 152)  -->
  <defs>
    <style>
      .st0 {
        fill: #1aab5b;
      }
    </style>
  </defs>
  <path class="st0" d="M30.1,13.6c0,3.4-1.2,6.4-3.3,8.6-2,2.1-4.7,3.3-7.4,3.3s-4.4-.9-5.6-1.8l-1.6,6.8c-.1.5-.6.9-1.2.9,0,0-.2,0-.3,0-.6-.1-1-.8-.9-1.4,0,0,0,0,0,0l4.8-20.2c.2-.6.8-1,1.4-.9.6.2,1,.8.9,1.4l-2.5,10.7c.5.6,1.9,2.1,4.9,2.1s8.3-3.6,8.3-9.5c0-5.9-4.8-10.7-10.7-10.7-5.9,0-10.7,4.8-10.7,10.7,0,1.9.5,3.7,1.4,5.3.3.6,0,1.3-.5,1.6-.6.3-1.3.1-1.6-.4-3.6-6.3-1.5-14.3,4.8-17.9,6.3-3.6,14.3-1.5,17.9,4.8,1.1,2,1.8,4.2,1.8,6.5Z"/>
</svg>